<span>
							<div style="text-align: center"><a href="http://imagetwist.com/tgc74mtdgeub/192417-m.jpg.html" target="_blank" rel="nofollow"><img class="imagen" border="0" src="http://img2.imagetwist.com/th/00354/tgc74mtdgeub.jpg" /></a> 	<br /><br /><img class="imagen" border="0" src="http://lulzimg.com/i15/599cc4.png" /><br />Rayo McQueen y la adorable grúa Mate viajan al extranjero para participar en el primer Campeonato Mundial en el que se decidirá cuál es el coche más rápido del planeta. La primera escala es Tokio (Japón), donde Mate tendrá que convertirse en una espía secreta al verse envuelta inesperadamente en un caso de espionaje internacional, que la llevará a París y a Londres. También vivirán una aventura de proporciones épicas al viajar a Porto Corsa (Italia), para disputar el Campeonato. Sin embargo, la pareja tendrá que renunciar a los placeres de la Riviera italiana -yates, playas y pasta al pesto- ya que Mate está muy ocupada con su labor de espía, mientras que McQueen compite contra los mejores coches del mundo.<br /><br /><br /><img class="imagen" border="0" src="http://lulzimg.com/i15/e9b6a6.png" /><br /><br />TÍTULO ORIGINAL: Cars 2<br />AÑO: 2011	<br />DURACIÓN: 113 min.	<br />PAÍS: EEUU<br />DIRECTOR: John Lasseter, Brad Lewis<br />GUIÓN: Ben Queen (Historia: John Lasseter, Brad Lewis, Dan Fogelman)<br />MÚSICA: Michael Giacchino<br />FOTOGRAFÍA: Animation<br />REPARTO: Animation<br />PRODUCTORA: Pixar Animation Studios / Walt Disney Pictures<br />GÉNERO: Animación. Aventuras. Comedia. Infantil | Automovilismo. Secuela<br />Estreno en USA: junio 2011.<br />Estreno en España: julio 2011.<br /><br /><b><span style="color: red;">Ficha Tecnica</span></b><br /><b>Idioma:</b> Ingles [es de esperar la version latino]<br /><b>Video:</b> Xvid 720x304 25.00fps 1944kbps [Video 0]<br /><b>Audio:</b> MPEG Audio Layer 3 44100Hz stereo 128kbps [Audio 1]<br /><b>Resolusion:</b> 720 x 304<br /><b>Duracion:</b> 01:34:33<br /><b>Tamaño:</b> 1408MB<br />Formato Video: AVI<br />Calidad: CAM<br />Subtítulos: N/D aún para esta versión<br /><br /><br /><br /><b>General</b><br />Complete name                    : Cars.2.2011.CAM.XViD.V2.By_animegarza.avi<br />Format                           : AVI<br />Format/Info                      : Audio Video Interleave<br />File size                        : 1.38 GiB<br />Duration                         : 1h 34mn<br />Overall bit rate                 : 2 083 Kbps<br />Writing library                  : VirtualDub build 32706/release<br /><br /><b>Video</b><br />ID                               : 0<br />Format                           : MPEG-4 Visual<br />Format profile                   : Advanced Simple@L5<br />Format settings, BVOP            : Yes<br />Format settings, QPel            : No<br />Format settings, GMC             : No warppoints<br />Format settings, Matrix          : Default (MPEG)<br />Muxing mode                      : Packed bitstream<br />Codec ID                         : XVID<br />Codec ID/Hint                    : XviD<br />Duration                         : 1h 34mn<br />Bit rate                         : 1 945 Kbps<br />Width                            : 720 pixels<br />Height                           : 304 pixels<br />Display aspect ratio             : 2.35:1<br />Frame rate                       : 25.000 fps<br />Color space                      : YUV<br />Chroma subsampling               : 4:2:0<br />Bit depth                        : 8 bits<br />Scan type                        : Progressive<br />Bits/(Pixel*Frame)               : 0.355<br />Stream size                      : 1.28 GiB (93%)<br />Writing library                  : XviD 61<br /><br /><b>Audio</b><br />ID                               : 1<br />Format                           : MPEG Audio<br />Format version                   : Version 1<br />Format profile                   : Layer 3<br />Mode                             : Joint stereo<br />Mode extension                   : MS Stereo<br />Codec ID                         : 55<br />Codec ID/Hint                    : MP3<br />Duration                         : 1h 34mn<br />Bit rate mode                    : Constant<br />Bit rate                         : 128 Kbps<br />Channel(s)                       : 2 channels<br />Sampling rate                    : 44.1 KHz<br />Stream size                      : 86.6 MiB (6%)<br />Alignment                        : Split accross interleaves<br />Interleave, duration             : 40 ms (1.00 video frame)<br />Interleave, preload duration     : 500 ms<br />Writing library                  : LAME3.98r<br /><br /><img class="imagen" border="0" src="http://i15.lulzimg.com/i/3ba395.png" /><br /><br /><b><span style="color: Red;">Capturas Propias Dale Click para ver en grande</span></b><br /><br /><a href="http://taringa.net/" target="_blank" rel="nofollow">
<img class="imagen" border="0" src="http://img2.imagetwist.com/th/00354/733lctal3xfq.jpg" /></a> <a href="http://imagetwist.com/1ww32c682ym4/Cars.2.2011.CAM.XViD.V2.By_animegarza.avi1.jpg.html" target="_blank" rel="nofollow"><img class="imagen" border="0" src="http://img2.imagetwist.com/th/00354/1ww32c682ym4.jpg" /></a> <a href="http://taringa.net/" target="_blank" rel="nofollow">
<img class="imagen" border="0" src="http://img2.imagetwist.com/th/00354/80pgcbaiaik9.jpg" /></a> <a href="http://imagetwist.com/7x8sv3ukgwy9/Cars.2.2011.CAM.XViD.V2.By_animegarza.avi3.jpg.html" target="_blank" rel="nofollow"><img class="imagen" border="0" src="http://img2.imagetwist.com/th/00354/7x8sv3ukgwy9.jpg" /></a> <a href="http://taringa.net/" target="_blank" rel="nofollow">
<img class="imagen" border="0" src="http://img2.imagetwist.com/th/00354/bgyp4948lp0g.jpg" /></a> <a href="http://imagetwist.com/u8ax0b1w6nnj/Cars.2.2011.CAM.XViD.V2.By_animegarza.avi5.jpg.html" target="_blank" rel="nofollow"><img class="imagen" border="0" src="http://img2.imagetwist.com/th/00354/u8ax0b1w6nnj.jpg" /></a> <br /><br /><br /><img class="imagen" border="0" src="http://lulzimg.com/i15/b2373f.png" /><br /><br /><img class="imagen" border="0" src="http://lulzimg.com/i20/90518e.png" /><br /><a href="http://www.uploadstation.com/file/jkuk63Z" target="_blank" rel="nofollow">http://www.uploadstation.com/file/jkuk63Z</a><br /><a href="http://www.uploadstation.com/file/MwXYQpa" target="_blank" rel="nofollow">http://www.uploadstation.com/file/MwXYQpa</a><br /><a href="http://www.uploadstation.com/file/CNzKAw3" target="_blank" rel="nofollow">http://www.uploadstation.com/file/CNzKAw3</a><br /><br /><span style="color: Red;">Fileserve</span><br /><a href="http://www.fileserve.com/file/5Uk7P7p" target="_blank" rel="nofollow">http://www.fileserve.com/file/5Uk7P7p</a><br /><a href="http://www.fileserve.com/file/VCmgTfG" target="_blank" rel="nofollow">http://www.fileserve.com/file/VCmgTfG</a><br /><a href="http://www.fileserve.com/file/JQjKded" target="_blank" rel="nofollow">http://www.fileserve.com/file/JQjKded</a><br /><br /><br /><span style="font-size: 12pt; line-height:12pt"><span style="color: Blue;"><b>Si te gusto este aporte comenta para que los demas Usuarios puedan Disfrutarlo tambien</b></span></span> </div>								</span>

				

<!-- INI TAG -->
<a href="/tags/cars" rel="tag">cars</a>
<a href="/tags/avi" rel="tag">avi</a>
<a href="/tags/2011" rel="tag">2011</a>
<a href="/tags/cars 2" rel="tag">cars 2</a>
<a href="/tags/infantlles" rel="tag">infantlles</a>
<!-- FIN TAG -->

